<svg id="Layer_1" height="512" viewBox="0 0 512 512" width="512" xmlns="http://www.w3.org/2000/svg"><g><path d="m424.085 173.636-11.903-2.659c-.81-2.666-1.881-5.25-3.205-7.728l6.539-10.328c1.251-1.977.966-4.556-.688-6.21l-7.04-7.041c-1.656-1.657-4.239-1.941-6.216-.686l-10.319 6.552c-2.456-1.316-5.04-2.39-7.729-3.211l-2.66-11.913c-.511-2.285-2.538-3.91-4.88-3.91h-9.969c-2.341 0-4.368 1.625-4.88 3.91l-2.66 11.913c-2.688.821-5.272 1.895-7.729 3.211l-10.32-6.552c-1.975-1.255-4.56-.971-6.215.686l-7.04 7.041c-1.654 1.654-1.939 4.233-.688 6.21l6.539 10.328c-1.322 2.478-2.396 5.062-3.204 7.728l-11.903 2.659c-2.285.511-3.91 2.539-3.91 4.88v9.966c-.001 2.343 1.624 4.371 3.909 4.881l11.901 2.659c.813 2.679 1.884 5.265 3.202 7.733l-6.534 10.325c-1.251 1.976-.967 4.556.688 6.21l7.04 7.039c1.654 1.655 4.234 1.94 6.21.689l10.328-6.539c2.479 1.324 5.063 2.396 7.729 3.205l2.658 11.903c.511 2.285 2.539 3.91 4.88 3.91h9.969c2.342 0 4.368-1.625 4.88-3.91l2.657-11.902c2.681-.812 5.266-1.882 7.732-3.204l10.323 6.536c1.977 1.251 4.557.965 6.21-.689l7.04-7.039c1.653-1.654 1.939-4.234.688-6.21l-6.539-10.33c1.324-2.479 2.396-5.063 3.205-7.728l11.903-2.659c2.285-.511 3.91-2.539 3.91-4.88v-9.966c.001-2.341-1.624-4.369-3.909-4.88zm-6.087 10.841-10.962 2.449c-1.895.423-3.37 1.902-3.791 3.795-.819 3.688-2.279 7.21-4.339 10.468-1.032 1.633-1.032 3.714.001 5.347l6.021 9.512-1.381 1.381-9.511-6.022c-1.638-1.037-3.728-1.035-5.359.007-3.216 2.047-6.732 3.504-10.456 4.331-1.894.42-3.373 1.898-3.796 3.791l-2.446 10.962h-1.953l-2.448-10.962c-.423-1.893-1.902-3.371-3.795-3.791-3.692-.82-7.214-2.28-10.469-4.339-1.634-1.032-3.716-1.032-5.35.001l-9.511 6.022-1.381-1.381 6.021-9.512c1.036-1.637 1.034-3.725-.007-5.359-2.047-3.216-3.504-6.734-4.331-10.455-.42-1.893-1.896-3.373-3.791-3.795l-10.962-2.449v-1.954c16.921-3.779 8.54-1.908 10.963-2.449 1.896-.423 3.371-1.902 3.791-3.795.821-3.692 2.28-7.214 4.339-10.466 1.033-1.633 1.033-3.716-.001-5.349l-6.021-9.511 1.378-1.378 9.509 6.037c1.64 1.041 3.733 1.037 5.371-.007 3.186-2.035 6.71-3.5 10.474-4.355 1.884-.428 3.353-1.901 3.771-3.786l2.448-10.961h1.952l2.447 10.961c.421 1.884 1.892 3.358 3.771 3.786 3.765.856 7.288 2.321 10.475 4.355 1.637 1.044 3.73 1.047 5.37.007l9.51-6.037 1.378 1.378-6.021 9.511c-1.033 1.633-1.033 3.715-.001 5.348 2.06 3.255 3.519 6.777 4.339 10.467.421 1.893 1.896 3.373 3.791 3.795l10.962 2.449v1.953z"/><path d="m371.017 163.524c-11.022 0-19.991 8.969-19.991 19.994-.001 11.005 8.968 19.96 19.991 19.96 11.008 0 19.96-8.954 19.96-19.96 0-11.025-8.954-19.994-19.96-19.994zm0 29.953c-5.51 0-9.991-4.468-9.991-9.96-.001-5.51 4.481-9.994 9.991-9.994 5.492 0 9.96 4.483 9.96 9.994 0 5.492-4.468 9.96-9.96 9.96z"/><path d="m448.5 80.334c0-13.418-10.915-24.334-24.333-24.334h-106.334c-13.417 0-24.333 10.916-24.333 24.334v30.666h-185c-24.813 0-45 20.187-45 45v219.135c-24.99 69.198-24.932 69.326-24.986 70.646-.035 1.005.134 1.725.645 2.701 13.224 23.141 37.997 37.518 64.653 37.518h304.377c26.654 0 51.43-14.377 64.651-37.52.352-.618.565-1.307.63-2.038.165-1.647.165-1.647-24.972-71.309.002-21.307.002-280.139.002-294.799zm-145 0c0-7.904 6.43-14.334 14.333-14.334h106.334c7.903 0 14.333 6.43 14.333 14.334v10.666h-135zm0 20.666h135v165h-135zm0 175h135v10.668c0 7.902-6.43 14.332-14.333 14.332h-106.334c-7.903 0-14.333-6.43-14.333-14.332zm-230-120c0-19.299 15.701-35 35-35h185v165.668c0 13.417 10.916 24.332 24.333 24.332h106.334c5.354 0 10.31-1.743 14.333-4.686v34.686h-365zm0 195h365v20h-365zm140 125h-109.688c-20.049 0-38.869-9.396-50.969-25h160.657zm80 0h-70v-25h70zm114.688 0h-104.688v-25h155.657c-12.099 15.604-30.919 25-50.969 25zm53.217-35c-17.576 0-391.56 0-410.81 0l21.428-60h367.953z"/><path d="m118.5 396h-10c-2.761 0-5 2.238-5 5s2.239 5 5 5h10c2.762 0 5-2.238 5-5s-2.238-5-5-5z"/><path d="m158.5 396h-10c-2.761 0-5 2.238-5 5s2.239 5 5 5h10c2.762 0 5-2.238 5-5s-2.238-5-5-5z"/><path d="m188.5 406h10c2.762 0 5-2.238 5-5s-2.238-5-5-5h-10c-2.761 0-5 2.238-5 5s2.239 5 5 5z"/><path d="m228.5 406h10c2.762 0 5-2.238 5-5s-2.238-5-5-5h-10c-2.761 0-5 2.238-5 5s2.239 5 5 5z"/><path d="m278.5 396h-10c-2.761 0-5 2.238-5 5s2.239 5 5 5h10c2.762 0 5-2.238 5-5s-2.238-5-5-5z"/><path d="m318.5 396h-10c-2.761 0-5 2.238-5 5s2.239 5 5 5h10c2.762 0 5-2.238 5-5s-2.238-5-5-5z"/><path d="m358.5 396h-10c-2.761 0-5 2.238-5 5s2.239 5 5 5h10c2.762 0 5-2.238 5-5s-2.238-5-5-5z"/><path d="m398.5 396h-10c-2.761 0-5 2.238-5 5s2.239 5 5 5h10c2.762 0 5-2.238 5-5s-2.238-5-5-5z"/><path d="m118.5 416h-10c-2.761 0-5 2.238-5 5s2.239 5 5 5h10c2.762 0 5-2.238 5-5s-2.238-5-5-5z"/><path d="m158.5 416h-10c-2.761 0-5 2.238-5 5s2.239 5 5 5h10c2.762 0 5-2.238 5-5s-2.238-5-5-5z"/><path d="m278.5 416h-90c-2.761 0-5 2.238-5 5s2.239 5 5 5h90c2.762 0 5-2.238 5-5s-2.238-5-5-5z"/><path d="m318.5 416h-10c-2.761 0-5 2.238-5 5s2.239 5 5 5h10c2.762 0 5-2.238 5-5s-2.238-5-5-5z"/><path d="m358.5 416h-10c-2.761 0-5 2.238-5 5s2.239 5 5 5h10c2.762 0 5-2.238 5-5s-2.238-5-5-5z"/><path d="m398.5 416h-10c-2.761 0-5 2.238-5 5s2.239 5 5 5h10c2.762 0 5-2.238 5-5s-2.238-5-5-5z"/><path d="m73.5 96c19.299 0 35-15.701 35-35s-15.701-35-35-35-35 15.701-35 35 15.701 35 35 35zm0-60c13.785 0 25 11.215 25 25s-11.215 25-25 25-25-11.215-25-25 11.215-25 25-25z"/><circle cx="36.002" cy="188.502" r="7.5"/><circle cx="155.999" cy="53.502" r="7.5"/><circle cx="465.998" cy="73.502" r="7.5"/><circle cx="475.998" cy="288.503" r="7.5"/><path d="m241 96c12.407 0 22.5-10.093 22.5-22.5s-10.093-22.5-22.5-22.5c-12.406 0-22.5 10.093-22.5 22.5s10.094 22.5 22.5 22.5zm0-35c6.893 0 12.5 5.607 12.5 12.5s-5.607 12.5-12.5 12.5-12.5-5.607-12.5-12.5 5.607-12.5 12.5-12.5z"/><path d="m118.5 231h25c2.762 0 5-2.239 5-5s-2.238-5-5-5h-25c-2.761 0-5 2.239-5 5s2.239 5 5 5z"/><path d="m233.5 221h-70c-2.761 0-5 2.239-5 5s2.239 5 5 5h70c2.762 0 5-2.239 5-5s-2.238-5-5-5z"/><path d="m118.5 256h45c2.762 0 5-2.238 5-5s-2.238-5-5-5h-45c-2.761 0-5 2.238-5 5s2.239 5 5 5z"/><path d="m193.5 256c2.762 0 5-2.238 5-5s-2.238-5-5-5h-10c-2.761 0-5 2.238-5 5s2.239 5 5 5z"/><path d="m228.5 246h-15c-2.761 0-5 2.238-5 5s2.239 5 5 5h15c2.762 0 5-2.238 5-5s-2.238-5-5-5z"/><path d="m118.5 281h15c2.762 0 5-2.238 5-5s-2.238-5-5-5h-15c-2.761 0-5 2.238-5 5s2.239 5 5 5z"/><path d="m188.5 281c2.762 0 5-2.238 5-5s-2.238-5-5-5h-35c-2.761 0-5 2.238-5 5s2.239 5 5 5z"/><path d="m228.5 271h-20c-2.761 0-5 2.238-5 5s2.239 5 5 5h20c2.762 0 5-2.238 5-5s-2.238-5-5-5z"/><path d="m138.5 296h-20c-2.761 0-5 2.238-5 5s2.239 5 5 5h20c2.762 0 5-2.238 5-5s-2.238-5-5-5z"/><path d="m203.5 296h-45c-2.761 0-5 2.238-5 5s2.239 5 5 5h45c2.762 0 5-2.238 5-5s-2.238-5-5-5z"/><path d="m115.377 179.904 25 20c2.149 1.721 5.298 1.381 7.027-.78 1.726-2.156 1.376-5.303-.78-7.028l-20.12-16.096 20.12-16.096c2.156-1.725 2.506-4.872.78-7.028-1.725-2.156-4.87-2.506-7.027-.781l-25 20c-2.507 2.005-2.495 5.817 0 7.809z"/><path d="m199.596 199.124c.988 1.234 2.44 1.877 3.908 1.876 1.095 0 2.198-.358 3.12-1.096l25-20c2.498-1.998 2.502-5.808 0-7.808l-25-20c-2.156-1.726-5.303-1.375-7.028.781s-1.375 5.303.781 7.028l20.119 16.095-20.119 16.096c-2.156 1.725-2.506 4.871-.781 7.028z"/><path d="m163.497 196.001c1.735 0 3.423-.905 4.346-2.521l20-35c1.37-2.397.537-5.452-1.861-6.822-2.396-1.371-5.451-.538-6.821 1.861l-20 35c-1.924 3.363.554 7.482 4.336 7.482z"/></g></svg>